<svg xmlns="http://www.w3.org/2000/svg" xmlns:xlink="http://www.w3.org/1999/xlink" width="500" zoomAndPan="magnify" viewBox="0 0 375 374.999991" height="500" preserveAspectRatio="xMidYMid meet" version="1.0"><defs><linearGradient x1="0" gradientTransform="matrix(0.75, 0, 0, 0.75, 0.0000045, 0)" y1="250" x2="499.999979" gradientUnits="userSpaceOnUse" y2="250" id="0dccc4347f"><stop stop-opacity="1" stop-color="rgb(36.499023%, 0%, 0%)" offset="0"/><stop stop-opacity="1" stop-color="rgb(36.628723%, 0.0274658%, 0.0213623%)" offset="0.0078125"/><stop stop-opacity="1" stop-color="rgb(36.889648%, 0.0823975%, 0.0640869%)" offset="0.015625"/><stop stop-opacity="1" stop-color="rgb(37.149048%, 0.137329%, 0.106812%)" offset="0.0234375"/><stop stop-opacity="1" stop-color="rgb(37.409973%, 0.193787%, 0.149536%)" offset="0.03125"/><stop stop-opacity="1" stop-color="rgb(37.669373%, 0.248718%, 0.192261%)" offset="0.0390625"/><stop stop-opacity="1" stop-color="rgb(37.930298%, 0.30365%, 0.234985%)" offset="0.046875"/><stop stop-opacity="1" stop-color="rgb(38.189697%, 0.360107%, 0.27771%)" offset="0.0546875"/><stop stop-opacity="1" stop-color="rgb(38.450623%, 0.415039%, 0.32196%)" offset="0.0625"/><stop stop-opacity="1" stop-color="rgb(38.710022%, 0.469971%, 0.364685%)" offset="0.0703125"/><stop stop-opacity="1" stop-color="rgb(38.970947%, 0.526428%, 0.40741%)" offset="0.078125"/><stop stop-opacity="1" stop-color="rgb(39.230347%, 0.58136%, 0.450134%)" offset="0.0859375"/><stop stop-opacity="1" stop-color="rgb(39.491272%, 0.636292%, 0.492859%)" offset="0.09375"/><stop stop-opacity="1" stop-color="rgb(39.750671%, 0.692749%, 0.535583%)" offset="0.101562"/><stop stop-opacity="1" stop-color="rgb(40.011597%, 0.747681%, 0.579834%)" offset="0.109375"/><stop stop-opacity="1" stop-color="rgb(40.270996%, 0.802612%, 0.622559%)" offset="0.117188"/><stop stop-opacity="1" stop-color="rgb(40.531921%, 0.85907%, 0.665283%)" offset="0.125"/><stop stop-opacity="1" stop-color="rgb(40.791321%, 0.914001%, 0.708008%)" offset="0.132812"/><stop stop-opacity="1" stop-color="rgb(41.052246%, 0.968933%, 0.750732%)" offset="0.140625"/><stop stop-opacity="1" stop-color="rgb(41.311646%, 1.025391%, 0.793457%)" offset="0.148437"/><stop stop-opacity="1" stop-color="rgb(41.572571%, 1.080322%, 0.837708%)" offset="0.15625"/><stop stop-opacity="1" stop-color="rgb(41.83197%, 1.13678%, 0.880432%)" offset="0.164062"/><stop stop-opacity="1" stop-color="rgb(42.092896%, 1.191711%, 0.923157%)" offset="0.171875"/><stop stop-opacity="1" stop-color="rgb(42.352295%, 1.246643%, 0.965881%)" offset="0.179687"/><stop stop-opacity="1" stop-color="rgb(42.61322%, 1.303101%, 1.008606%)" offset="0.1875"/><stop stop-opacity="1" stop-color="rgb(42.87262%, 1.358032%, 1.051331%)" offset="0.195312"/><stop stop-opacity="1" stop-color="rgb(43.133545%, 1.412964%, 1.094055%)" offset="0.203125"/><stop stop-opacity="1" stop-color="rgb(43.392944%, 1.469421%, 1.138306%)" offset="0.210938"/><stop stop-opacity="1" stop-color="rgb(43.65387%, 1.524353%, 1.18103%)" offset="0.21875"/><stop stop-opacity="1" stop-color="rgb(43.913269%, 1.579285%, 1.223755%)" offset="0.226562"/><stop stop-opacity="1" stop-color="rgb(44.174194%, 1.635742%, 1.266479%)" offset="0.234375"/><stop stop-opacity="1" stop-color="rgb(44.433594%, 1.690674%, 1.309204%)" offset="0.242188"/><stop stop-opacity="1" stop-color="rgb(44.694519%, 1.745605%, 1.351929%)" offset="0.25"/><stop stop-opacity="1" stop-color="rgb(44.953918%, 1.802063%, 1.396179%)" offset="0.257812"/><stop stop-opacity="1" stop-color="rgb(45.214844%, 1.856995%, 1.438904%)" offset="0.265625"/><stop stop-opacity="1" stop-color="rgb(45.474243%, 1.911926%, 1.481628%)" offset="0.273437"/><stop stop-opacity="1" stop-color="rgb(45.733643%, 1.968384%, 1.524353%)" offset="0.28125"/><stop stop-opacity="1" stop-color="rgb(45.994568%, 2.023315%, 1.567078%)" offset="0.289062"/><stop stop-opacity="1" stop-color="rgb(46.253967%, 2.079773%, 1.609802%)" offset="0.296875"/><stop stop-opacity="1" stop-color="rgb(46.514893%, 2.134705%, 1.654053%)" offset="0.304687"/><stop stop-opacity="1" stop-color="rgb(46.774292%, 2.189636%, 1.696777%)" offset="0.3125"/><stop stop-opacity="1" stop-color="rgb(47.035217%, 2.246094%, 1.739502%)" offset="0.320312"/><stop stop-opacity="1" stop-color="rgb(47.294617%, 2.301025%, 1.782227%)" offset="0.328125"/><stop stop-opacity="1" stop-color="rgb(47.555542%, 2.355957%, 1.824951%)" offset="0.335937"/><stop stop-opacity="1" stop-color="rgb(47.814941%, 2.412415%, 1.867676%)" offset="0.34375"/><stop stop-opacity="1" stop-color="rgb(48.075867%, 2.467346%, 1.911926%)" offset="0.351562"/><stop stop-opacity="1" stop-color="rgb(48.335266%, 2.522278%, 1.954651%)" offset="0.359375"/><stop stop-opacity="1" stop-color="rgb(48.596191%, 2.578735%, 1.997375%)" offset="0.367187"/><stop stop-opacity="1" stop-color="rgb(48.855591%, 2.633667%, 2.0401%)" offset="0.375"/><stop stop-opacity="1" stop-color="rgb(49.116516%, 2.688599%, 2.082825%)" offset="0.382812"/><stop stop-opacity="1" stop-color="rgb(49.375916%, 2.745056%, 2.125549%)" offset="0.390625"/><stop stop-opacity="1" stop-color="rgb(49.636841%, 2.799988%, 2.168274%)" offset="0.398438"/><stop stop-opacity="1" stop-color="rgb(49.89624%, 2.854919%, 2.212524%)" offset="0.40625"/><stop stop-opacity="1" stop-color="rgb(50.157166%, 2.911377%, 2.255249%)" offset="0.414062"/><stop stop-opacity="1" stop-color="rgb(50.416565%, 2.966309%, 2.297974%)" offset="0.421875"/><stop stop-opacity="1" stop-color="rgb(50.67749%, 3.022766%, 2.340698%)" offset="0.429688"/><stop stop-opacity="1" stop-color="rgb(50.93689%, 3.077698%, 2.383423%)" offset="0.4375"/><stop stop-opacity="1" stop-color="rgb(51.197815%, 3.132629%, 2.426147%)" offset="0.445312"/><stop stop-opacity="1" stop-color="rgb(51.457214%, 3.189087%, 2.470398%)" offset="0.453125"/><stop stop-opacity="1" stop-color="rgb(51.71814%, 3.244019%, 2.513123%)" offset="0.460938"/><stop stop-opacity="1" stop-color="rgb(51.977539%, 3.29895%, 2.555847%)" offset="0.46875"/><stop stop-opacity="1" stop-color="rgb(52.238464%, 3.355408%, 2.598572%)" offset="0.476562"/><stop stop-opacity="1" stop-color="rgb(52.497864%, 3.410339%, 2.641296%)" offset="0.484375"/><stop stop-opacity="1" stop-color="rgb(52.758789%, 3.465271%, 2.684021%)" offset="0.492188"/><stop stop-opacity="1" stop-color="rgb(53.018188%, 3.521729%, 2.728271%)" offset="0.5"/><stop stop-opacity="1" stop-color="rgb(53.279114%, 3.57666%, 2.770996%)" offset="0.507812"/><stop stop-opacity="1" stop-color="rgb(53.538513%, 3.631592%, 2.813721%)" offset="0.515625"/><stop stop-opacity="1" stop-color="rgb(53.799438%, 3.688049%, 2.856445%)" offset="0.523437"/><stop stop-opacity="1" stop-color="rgb(54.058838%, 3.742981%, 2.89917%)" offset="0.53125"/><stop stop-opacity="1" stop-color="rgb(54.319763%, 3.797913%, 2.941895%)" offset="0.539062"/><stop stop-opacity="1" stop-color="rgb(54.579163%, 3.85437%, 2.986145%)" offset="0.546875"/><stop stop-opacity="1" stop-color="rgb(54.840088%, 3.909302%, 3.02887%)" offset="0.554687"/><stop stop-opacity="1" stop-color="rgb(55.099487%, 3.964233%, 3.071594%)" offset="0.5625"/><stop stop-opacity="1" stop-color="rgb(55.360413%, 4.020691%, 3.114319%)" offset="0.570312"/><stop stop-opacity="1" stop-color="rgb(55.619812%, 4.075623%, 3.157043%)" offset="0.578125"/><stop stop-opacity="1" stop-color="rgb(55.880737%, 4.13208%, 3.199768%)" offset="0.585937"/><stop stop-opacity="1" stop-color="rgb(56.140137%, 4.187012%, 3.242493%)" offset="0.59375"/><stop stop-opacity="1" stop-color="rgb(56.401062%, 4.241943%, 3.286743%)" offset="0.601562"/><stop stop-opacity="1" stop-color="rgb(56.660461%, 4.298401%, 3.329468%)" offset="0.609375"/><stop stop-opacity="1" stop-color="rgb(56.921387%, 4.353333%, 3.372192%)" offset="0.617187"/><stop stop-opacity="1" stop-color="rgb(57.180786%, 4.408264%, 3.414917%)" offset="0.625"/><stop stop-opacity="1" stop-color="rgb(57.441711%, 4.464722%, 3.457642%)" offset="0.632812"/><stop stop-opacity="1" stop-color="rgb(57.701111%, 4.519653%, 3.500366%)" offset="0.640625"/><stop stop-opacity="1" stop-color="rgb(57.962036%, 4.574585%, 3.544617%)" offset="0.648437"/><stop stop-opacity="1" stop-color="rgb(58.221436%, 4.631042%, 3.587341%)" offset="0.65625"/><stop stop-opacity="1" stop-color="rgb(58.482361%, 4.685974%, 3.630066%)" offset="0.664062"/><stop stop-opacity="1" stop-color="rgb(58.74176%, 4.740906%, 3.672791%)" offset="0.671875"/><stop stop-opacity="1" stop-color="rgb(59.002686%, 4.797363%, 3.715515%)" offset="0.679687"/><stop stop-opacity="1" stop-color="rgb(59.262085%, 4.852295%, 3.75824%)" offset="0.6875"/><stop stop-opacity="1" stop-color="rgb(59.52301%, 4.907227%, 3.80249%)" offset="0.695312"/><stop stop-opacity="1" stop-color="rgb(59.78241%, 4.963684%, 3.845215%)" offset="0.703125"/><stop stop-opacity="1" stop-color="rgb(60.043335%, 5.018616%, 3.887939%)" offset="0.710937"/><stop stop-opacity="1" stop-color="rgb(60.302734%, 5.075073%, 3.930664%)" offset="0.71875"/><stop stop-opacity="1" stop-color="rgb(60.56366%, 5.130005%, 3.973389%)" offset="0.726562"/><stop stop-opacity="1" stop-color="rgb(60.823059%, 5.184937%, 4.016113%)" offset="0.734375"/><stop stop-opacity="1" stop-color="rgb(61.083984%, 5.241394%, 4.060364%)" offset="0.742187"/><stop stop-opacity="1" stop-color="rgb(61.343384%, 5.296326%, 4.103088%)" offset="0.75"/><stop stop-opacity="1" stop-color="rgb(61.604309%, 5.351257%, 4.145813%)" offset="0.757812"/><stop stop-opacity="1" stop-color="rgb(61.863708%, 5.407715%, 4.188538%)" offset="0.765625"/><stop stop-opacity="1" stop-color="rgb(62.124634%, 5.462646%, 4.231262%)" offset="0.773438"/><stop stop-opacity="1" stop-color="rgb(62.384033%, 5.517578%, 4.273987%)" offset="0.78125"/><stop stop-opacity="1" stop-color="rgb(62.644958%, 5.574036%, 4.316711%)" offset="0.789062"/><stop stop-opacity="1" stop-color="rgb(62.904358%, 5.628967%, 4.360962%)" offset="0.796875"/><stop stop-opacity="1" stop-color="rgb(63.165283%, 5.683899%, 4.403687%)" offset="0.804688"/><stop stop-opacity="1" stop-color="rgb(63.424683%, 5.740356%, 4.446411%)" offset="0.8125"/><stop stop-opacity="1" stop-color="rgb(63.685608%, 5.795288%, 4.489136%)" offset="0.820312"/><stop stop-opacity="1" stop-color="rgb(63.945007%, 5.85022%, 4.53186%)" offset="0.828125"/><stop stop-opacity="1" stop-color="rgb(64.205933%, 5.906677%, 4.574585%)" offset="0.835938"/><stop stop-opacity="1" stop-color="rgb(64.465332%, 5.961609%, 4.618835%)" offset="0.84375"/><stop stop-opacity="1" stop-color="rgb(64.726257%, 6.018066%, 4.66156%)" offset="0.851562"/><stop stop-opacity="1" stop-color="rgb(64.985657%, 6.072998%, 4.704285%)" offset="0.859375"/><stop stop-opacity="1" stop-color="rgb(65.246582%, 6.12793%, 4.747009%)" offset="0.867188"/><stop stop-opacity="1" stop-color="rgb(65.505981%, 6.184387%, 4.789734%)" offset="0.875"/><stop stop-opacity="1" stop-color="rgb(65.766907%, 6.239319%, 4.832458%)" offset="0.882812"/><stop stop-opacity="1" stop-color="rgb(66.026306%, 6.29425%, 4.876709%)" offset="0.890625"/><stop stop-opacity="1" stop-color="rgb(66.287231%, 6.350708%, 4.919434%)" offset="0.898438"/><stop stop-opacity="1" stop-color="rgb(66.546631%, 6.40564%, 4.962158%)" offset="0.90625"/><stop stop-opacity="1" stop-color="rgb(66.807556%, 6.460571%, 5.004883%)" offset="0.914062"/><stop stop-opacity="1" stop-color="rgb(67.066956%, 6.517029%, 5.047607%)" offset="0.921875"/><stop stop-opacity="1" stop-color="rgb(67.327881%, 6.57196%, 5.090332%)" offset="0.929688"/><stop stop-opacity="1" stop-color="rgb(67.58728%, 6.626892%, 5.134583%)" offset="0.9375"/><stop stop-opacity="1" stop-color="rgb(67.848206%, 6.68335%, 5.177307%)" offset="0.945312"/><stop stop-opacity="1" stop-color="rgb(68.107605%, 6.738281%, 5.220032%)" offset="0.953125"/><stop stop-opacity="1" stop-color="rgb(68.36853%, 6.793213%, 5.262756%)" offset="0.960938"/><stop stop-opacity="1" stop-color="rgb(68.62793%, 6.84967%, 5.305481%)" offset="0.96875"/><stop stop-opacity="1" stop-color="rgb(68.888855%, 6.904602%, 5.348206%)" offset="0.976562"/><stop stop-opacity="1" stop-color="rgb(69.148254%, 6.959534%, 5.39093%)" offset="0.984375"/><stop stop-opacity="1" stop-color="rgb(69.40918%, 7.015991%, 5.435181%)" offset="0.992188"/><stop stop-opacity="1" stop-color="rgb(69.668579%, 7.070923%, 5.477905%)" offset="1"/></linearGradient><clipPath id="6471af6db6"><path d="M 34 37 L 344 37 L 344 346.957031 L 34 346.957031 Z M 34 37 " clip-rule="nonzero"/></clipPath><clipPath id="43c7ca183c"><path d="M 153 78.6875 L 222 78.6875 L 222 182 L 153 182 Z M 153 78.6875 " clip-rule="nonzero"/></clipPath><clipPath id="73fa1f12f5"><path d="M 73.050781 235 L 301.800781 235 L 301.800781 266.9375 L 73.050781 266.9375 Z M 73.050781 235 " clip-rule="nonzero"/></clipPath></defs><rect x="-37.5" width="450" fill="#ffffff" y="-37.499999" height="449.999989" fill-opacity="1"/><rect x="-37.5" fill="url(#0dccc4347f)" width="450" y="-37.499999" height="449.999989"/><g clip-path="url(#6471af6db6)"><path fill="#ffffff" d="M 188.792969 346.644531 C 185.003906 346.644531 181.214844 346.503906 177.433594 346.226562 C 173.652344 345.945312 169.886719 345.53125 166.132812 344.972656 C 162.382812 344.417969 158.65625 343.722656 154.957031 342.894531 C 151.257812 342.0625 147.59375 341.097656 143.964844 339.996094 C 140.335938 338.894531 136.753906 337.664062 133.214844 336.296875 C 129.675781 334.933594 126.195312 333.441406 122.765625 331.820312 C 119.339844 330.199219 115.972656 328.453125 112.675781 326.582031 C 109.375 324.714844 106.148438 322.726562 102.996094 320.621094 C 99.84375 318.511719 96.773438 316.292969 93.78125 313.960938 C 90.792969 311.628906 87.894531 309.1875 85.085938 306.640625 C 82.273438 304.09375 79.5625 301.449219 76.949219 298.703125 C 74.332031 295.957031 71.824219 293.117188 69.417969 290.1875 C 67.011719 287.253906 64.714844 284.238281 62.53125 281.140625 C 60.347656 278.039062 58.28125 274.863281 56.332031 271.609375 C 54.382812 268.355469 52.554688 265.039062 50.851562 261.648438 C 49.148438 258.261719 47.570312 254.816406 46.117188 251.316406 C 44.667969 247.8125 43.347656 244.257812 42.15625 240.660156 C 40.96875 237.058594 39.910156 233.417969 38.988281 229.742188 C 38.070312 226.0625 37.285156 222.355469 36.636719 218.617188 C 35.988281 214.882812 35.476562 211.128906 35.105469 207.355469 C 34.734375 203.578125 34.5 199.796875 34.410156 196.007812 C 34.316406 192.214844 34.363281 188.425781 34.546875 184.640625 C 34.734375 180.851562 35.058594 177.078125 35.523438 173.3125 C 35.988281 169.550781 36.589844 165.808594 37.328125 162.089844 C 38.070312 158.371094 38.945312 154.683594 39.957031 151.027344 C 40.96875 147.375 42.113281 143.761719 43.390625 140.191406 C 44.667969 136.621094 46.074219 133.101562 47.613281 129.636719 C 49.148438 126.167969 50.808594 122.761719 52.597656 119.417969 C 54.386719 116.074219 56.292969 112.800781 58.324219 109.597656 C 60.351562 106.394531 62.496094 103.269531 64.753906 100.222656 C 67.011719 97.175781 69.382812 94.21875 71.859375 91.347656 C 74.335938 88.476562 76.914062 85.699219 79.59375 83.019531 C 81.378906 81.222656 83.207031 79.472656 85.078125 77.765625 C 86.949219 76.058594 88.863281 74.402344 90.816406 72.789062 C 92.769531 71.175781 94.761719 69.613281 96.789062 68.101562 C 98.820312 66.585938 100.886719 65.121094 102.988281 63.710938 C 105.089844 62.296875 107.222656 60.9375 109.390625 59.628906 C 111.5625 58.324219 113.761719 57.070312 115.992188 55.871094 C 118.222656 54.671875 120.480469 53.527344 122.765625 52.441406 C 125.050781 51.351562 127.363281 50.320312 129.703125 49.347656 C 132.039062 48.371094 134.398438 47.457031 136.78125 46.597656 C 139.164062 45.738281 141.566406 44.941406 143.988281 44.199219 C 146.40625 43.460938 148.847656 42.78125 151.300781 42.160156 C 153.757812 41.539062 156.226562 40.980469 158.707031 40.480469 C 161.191406 39.984375 163.683594 39.546875 166.1875 39.167969 C 168.691406 38.792969 171.203125 38.480469 173.722656 38.226562 C 176.242188 37.972656 178.765625 37.785156 181.296875 37.65625 C 183.824219 37.527344 186.355469 37.460938 188.886719 37.457031 C 191.421875 37.453125 193.949219 37.511719 196.480469 37.632812 C 199.007812 37.753906 201.535156 37.9375 204.054688 38.179688 C 206.574219 38.425781 209.085938 38.730469 211.59375 39.101562 C 214.097656 39.46875 216.59375 39.898438 219.078125 40.390625 C 221.5625 40.882812 224.03125 41.433594 226.488281 42.046875 C 228.945312 42.660156 231.386719 43.332031 233.808594 44.0625 C 236.234375 44.796875 238.636719 45.589844 241.023438 46.441406 C 243.40625 47.289062 245.769531 48.199219 248.109375 49.167969 C 250.449219 50.132812 252.765625 51.160156 255.054688 52.238281 C 257.34375 53.320312 259.605469 54.457031 261.839844 55.648438 C 264.074219 56.84375 266.277344 58.089844 268.449219 59.390625 C 270.621094 60.691406 272.761719 62.042969 274.867188 63.449219 C 276.972656 64.855469 279.042969 66.3125 281.078125 67.820312 C 283.113281 69.328125 285.109375 70.886719 287.066406 72.492188 C 289.023438 74.097656 290.941406 75.75 292.816406 77.449219 C 294.695312 79.152344 296.527344 80.898438 298.316406 82.6875 C 300.109375 84.476562 301.855469 86.3125 303.554688 88.1875 C 305.253906 90.0625 306.90625 91.980469 308.515625 93.9375 C 310.121094 95.898438 311.675781 97.894531 313.183594 99.925781 C 314.691406 101.960938 316.148438 104.03125 317.554688 106.136719 C 318.960938 108.242188 320.316406 110.382812 321.617188 112.554688 C 322.917969 114.726562 324.164062 116.929688 325.355469 119.164062 C 326.546875 121.398438 327.683594 123.660156 328.765625 125.949219 C 329.847656 128.238281 330.871094 130.554688 331.839844 132.894531 C 332.804688 135.234375 333.714844 137.597656 334.566406 139.984375 C 335.417969 142.367188 336.207031 144.773438 336.941406 147.195312 C 337.675781 149.621094 338.347656 152.058594 338.960938 154.515625 C 339.570312 156.972656 340.125 159.445312 340.613281 161.929688 C 341.105469 164.414062 341.535156 166.90625 341.90625 169.414062 C 342.273438 171.917969 342.578125 174.429688 342.824219 176.949219 C 343.070312 179.472656 343.253906 181.996094 343.371094 184.523438 C 343.492188 187.054688 343.550781 189.585938 343.546875 192.117188 C 343.542969 194.648438 343.476562 197.179688 343.351562 199.710938 C 343.222656 202.238281 343.03125 204.761719 342.777344 207.28125 C 342.527344 209.800781 342.210938 212.3125 341.835938 214.816406 C 341.460938 217.320312 341.023438 219.816406 340.523438 222.296875 C 340.023438 224.78125 339.464844 227.25 338.84375 229.703125 C 338.226562 232.160156 337.546875 234.597656 336.804688 237.019531 C 336.066406 239.441406 335.265625 241.84375 334.40625 244.226562 C 333.550781 246.605469 332.632812 248.964844 331.660156 251.304688 C 330.683594 253.640625 329.652344 255.953125 328.566406 258.238281 C 327.476562 260.527344 326.332031 262.785156 325.132812 265.015625 C 323.933594 267.246094 322.683594 269.445312 321.375 271.613281 C 320.066406 273.78125 318.707031 275.917969 317.292969 278.019531 C 315.882812 280.121094 314.417969 282.1875 312.90625 284.214844 C 311.390625 286.246094 309.828125 288.238281 308.214844 290.1875 C 306.605469 292.140625 304.945312 294.054688 303.238281 295.925781 C 301.535156 297.796875 299.78125 299.625 297.988281 301.410156 C 294.417969 304.996094 290.683594 308.398438 286.777344 311.617188 C 282.875 314.835938 278.820312 317.851562 274.617188 320.667969 C 270.414062 323.484375 266.082031 326.089844 261.621094 328.476562 C 257.164062 330.863281 252.59375 333.027344 247.921875 334.964844 C 243.246094 336.898438 238.488281 338.601562 233.644531 340.066406 C 228.804688 341.53125 223.898438 342.753906 218.9375 343.734375 C 213.972656 344.714844 208.972656 345.449219 203.9375 345.933594 C 198.902344 346.421875 193.855469 346.65625 188.792969 346.644531 Z M 188.792969 43.539062 C 106.808594 43.539062 40.113281 110.230469 40.113281 192.21875 C 40.113281 274.203125 106.808594 340.890625 188.792969 340.890625 C 270.78125 340.890625 337.46875 274.195312 337.46875 192.21875 C 337.46875 110.238281 270.773438 43.539062 188.792969 43.539062 Z M 188.792969 43.539062 " fill-opacity="1" fill-rule="nonzero"/></g><g clip-path="url(#43c7ca183c)"><path fill="#ffffff" d="M 163.523438 170.207031 C 164.398438 176.910156 170.113281 181.929688 176.875 181.929688 L 196.121094 181.929688 C 202.777344 181.929688 208.429688 177.066406 209.433594 170.488281 C 209.8125 168 220.460938 98.015625 221.042969 94.191406 C 222.28125 86.046875 215.976562 78.703125 207.730469 78.703125 L 166.925781 78.703125 C 158.796875 78.703125 152.523438 85.847656 153.574219 93.910156 C 164.277344 176 163.453125 169.671875 163.523438 170.207031 Z M 163.523438 170.207031 " fill-opacity="1" fill-rule="nonzero"/></g><path fill="#ffffff" d="M 122.417969 199.878906 C 124.890625 199.878906 126.90625 197.867188 126.90625 195.390625 L 126.90625 120.226562 C 123.746094 122.660156 120.746094 125.296875 117.929688 128.113281 L 117.929688 195.390625 C 117.929688 197.867188 119.941406 199.878906 122.417969 199.878906 Z M 122.417969 199.878906 " fill-opacity="1" fill-rule="nonzero"/><path fill="#ffffff" d="M 252.570312 199.878906 C 255.046875 199.878906 257.058594 197.867188 257.058594 195.390625 L 257.058594 128.121094 C 254.242188 125.300781 251.242188 122.664062 248.082031 120.230469 L 248.082031 195.390625 C 248.082031 197.867188 250.097656 199.878906 252.570312 199.878906 Z M 252.570312 199.878906 " fill-opacity="1" fill-rule="nonzero"/><path fill="#ffffff" d="M 283.988281 193.148438 C 283.988281 172.621094 277.285156 153.765625 266.035156 138.542969 L 266.035156 195.390625 C 266.035156 202.816406 259.996094 208.855469 252.570312 208.855469 C 245.148438 208.855469 239.105469 202.816406 239.105469 195.390625 L 239.105469 114.121094 C 235.535156 111.984375 231.808594 110.085938 227.953125 108.445312 L 218.304688 171.839844 C 216.625 182.886719 207.296875 190.90625 196.121094 190.90625 L 176.875 190.90625 C 165.644531 190.90625 156.078125 182.503906 154.625 171.367188 L 146.449219 108.695312 C 142.796875 110.277344 139.269531 112.09375 135.882812 114.117188 L 135.882812 195.390625 C 135.882812 202.816406 129.84375 208.855469 122.417969 208.855469 C 114.992188 208.855469 108.953125 202.816406 108.953125 195.390625 L 108.953125 138.546875 C 97.671875 153.820312 91 172.703125 91 193.148438 L 91 226.808594 L 283.988281 226.808594 Z M 283.988281 193.148438 " fill-opacity="1" fill-rule="nonzero"/><g clip-path="url(#73fa1f12f5)"><path fill="#ffffff" d="M 297.453125 235.785156 L 77.539062 235.785156 C 75.058594 235.785156 73.050781 237.792969 73.050781 240.273438 L 73.050781 262.714844 C 73.050781 265.191406 75.058594 267.203125 77.539062 267.203125 L 297.453125 267.203125 C 299.929688 267.203125 301.941406 265.191406 301.941406 262.714844 L 301.941406 240.273438 C 301.941406 237.792969 299.929688 235.785156 297.453125 235.785156 Z M 297.453125 235.785156 " fill-opacity="1" fill-rule="nonzero"/></g></svg>