<svg xmlns="http://www.w3.org/2000/svg" xmlns:xlink="http://www.w3.org/1999/xlink" width="500" zoomAndPan="magnify" viewBox="0 0 375 374.999991" height="500" preserveAspectRatio="xMidYMid meet" version="1.0"><defs><linearGradient x1="0" gradientTransform="matrix(0.75, 0, 0, 0.75, 0.0000045, 0)" y1="250" x2="499.999979" gradientUnits="userSpaceOnUse" y2="250" id="333ed295fc"><stop stop-opacity="1" stop-color="rgb(36.499023%, 0%, 0%)" offset="0"/><stop stop-opacity="1" stop-color="rgb(36.628723%, 0.0274658%, 0.0213623%)" offset="0.0078125"/><stop stop-opacity="1" stop-color="rgb(36.889648%, 0.0823975%, 0.0640869%)" offset="0.015625"/><stop stop-opacity="1" stop-color="rgb(37.149048%, 0.137329%, 0.106812%)" offset="0.0234375"/><stop stop-opacity="1" stop-color="rgb(37.409973%, 0.193787%, 0.149536%)" offset="0.03125"/><stop stop-opacity="1" stop-color="rgb(37.669373%, 0.248718%, 0.192261%)" offset="0.0390625"/><stop stop-opacity="1" stop-color="rgb(37.930298%, 0.30365%, 0.234985%)" offset="0.046875"/><stop stop-opacity="1" stop-color="rgb(38.189697%, 0.360107%, 0.27771%)" offset="0.0546875"/><stop stop-opacity="1" stop-color="rgb(38.450623%, 0.415039%, 0.32196%)" offset="0.0625"/><stop stop-opacity="1" stop-color="rgb(38.710022%, 0.469971%, 0.364685%)" offset="0.0703125"/><stop stop-opacity="1" stop-color="rgb(38.970947%, 0.526428%, 0.40741%)" offset="0.078125"/><stop stop-opacity="1" stop-color="rgb(39.230347%, 0.58136%, 0.450134%)" offset="0.0859375"/><stop stop-opacity="1" stop-color="rgb(39.491272%, 0.636292%, 0.492859%)" offset="0.09375"/><stop stop-opacity="1" stop-color="rgb(39.750671%, 0.692749%, 0.535583%)" offset="0.101562"/><stop stop-opacity="1" stop-color="rgb(40.011597%, 0.747681%, 0.579834%)" offset="0.109375"/><stop stop-opacity="1" stop-color="rgb(40.270996%, 0.802612%, 0.622559%)" offset="0.117188"/><stop stop-opacity="1" stop-color="rgb(40.531921%, 0.85907%, 0.665283%)" offset="0.125"/><stop stop-opacity="1" stop-color="rgb(40.791321%, 0.914001%, 0.708008%)" offset="0.132812"/><stop stop-opacity="1" stop-color="rgb(41.052246%, 0.968933%, 0.750732%)" offset="0.140625"/><stop stop-opacity="1" stop-color="rgb(41.311646%, 1.025391%, 0.793457%)" offset="0.148437"/><stop stop-opacity="1" stop-color="rgb(41.572571%, 1.080322%, 0.837708%)" offset="0.15625"/><stop stop-opacity="1" stop-color="rgb(41.83197%, 1.13678%, 0.880432%)" offset="0.164062"/><stop stop-opacity="1" stop-color="rgb(42.092896%, 1.191711%, 0.923157%)" offset="0.171875"/><stop stop-opacity="1" stop-color="rgb(42.352295%, 1.246643%, 0.965881%)" offset="0.179687"/><stop stop-opacity="1" stop-color="rgb(42.61322%, 1.303101%, 1.008606%)" offset="0.1875"/><stop stop-opacity="1" stop-color="rgb(42.87262%, 1.358032%, 1.051331%)" offset="0.195312"/><stop stop-opacity="1" stop-color="rgb(43.133545%, 1.412964%, 1.094055%)" offset="0.203125"/><stop stop-opacity="1" stop-color="rgb(43.392944%, 1.469421%, 1.138306%)" offset="0.210938"/><stop stop-opacity="1" stop-color="rgb(43.65387%, 1.524353%, 1.18103%)" offset="0.21875"/><stop stop-opacity="1" stop-color="rgb(43.913269%, 1.579285%, 1.223755%)" offset="0.226562"/><stop stop-opacity="1" stop-color="rgb(44.174194%, 1.635742%, 1.266479%)" offset="0.234375"/><stop stop-opacity="1" stop-color="rgb(44.433594%, 1.690674%, 1.309204%)" offset="0.242188"/><stop stop-opacity="1" stop-color="rgb(44.694519%, 1.745605%, 1.351929%)" offset="0.25"/><stop stop-opacity="1" stop-color="rgb(44.953918%, 1.802063%, 1.396179%)" offset="0.257812"/><stop stop-opacity="1" stop-color="rgb(45.214844%, 1.856995%, 1.438904%)" offset="0.265625"/><stop stop-opacity="1" stop-color="rgb(45.474243%, 1.911926%, 1.481628%)" offset="0.273437"/><stop stop-opacity="1" stop-color="rgb(45.733643%, 1.968384%, 1.524353%)" offset="0.28125"/><stop stop-opacity="1" stop-color="rgb(45.994568%, 2.023315%, 1.567078%)" offset="0.289062"/><stop stop-opacity="1" stop-color="rgb(46.253967%, 2.079773%, 1.609802%)" offset="0.296875"/><stop stop-opacity="1" stop-color="rgb(46.514893%, 2.134705%, 1.654053%)" offset="0.304687"/><stop stop-opacity="1" stop-color="rgb(46.774292%, 2.189636%, 1.696777%)" offset="0.3125"/><stop stop-opacity="1" stop-color="rgb(47.035217%, 2.246094%, 1.739502%)" offset="0.320312"/><stop stop-opacity="1" stop-color="rgb(47.294617%, 2.301025%, 1.782227%)" offset="0.328125"/><stop stop-opacity="1" stop-color="rgb(47.555542%, 2.355957%, 1.824951%)" offset="0.335937"/><stop stop-opacity="1" stop-color="rgb(47.814941%, 2.412415%, 1.867676%)" offset="0.34375"/><stop stop-opacity="1" stop-color="rgb(48.075867%, 2.467346%, 1.911926%)" offset="0.351562"/><stop stop-opacity="1" stop-color="rgb(48.335266%, 2.522278%, 1.954651%)" offset="0.359375"/><stop stop-opacity="1" stop-color="rgb(48.596191%, 2.578735%, 1.997375%)" offset="0.367187"/><stop stop-opacity="1" stop-color="rgb(48.855591%, 2.633667%, 2.0401%)" offset="0.375"/><stop stop-opacity="1" stop-color="rgb(49.116516%, 2.688599%, 2.082825%)" offset="0.382812"/><stop stop-opacity="1" stop-color="rgb(49.375916%, 2.745056%, 2.125549%)" offset="0.390625"/><stop stop-opacity="1" stop-color="rgb(49.636841%, 2.799988%, 2.168274%)" offset="0.398438"/><stop stop-opacity="1" stop-color="rgb(49.89624%, 2.854919%, 2.212524%)" offset="0.40625"/><stop stop-opacity="1" stop-color="rgb(50.157166%, 2.911377%, 2.255249%)" offset="0.414062"/><stop stop-opacity="1" stop-color="rgb(50.416565%, 2.966309%, 2.297974%)" offset="0.421875"/><stop stop-opacity="1" stop-color="rgb(50.67749%, 3.022766%, 2.340698%)" offset="0.429688"/><stop stop-opacity="1" stop-color="rgb(50.93689%, 3.077698%, 2.383423%)" offset="0.4375"/><stop stop-opacity="1" stop-color="rgb(51.197815%, 3.132629%, 2.426147%)" offset="0.445312"/><stop stop-opacity="1" stop-color="rgb(51.457214%, 3.189087%, 2.470398%)" offset="0.453125"/><stop stop-opacity="1" stop-color="rgb(51.71814%, 3.244019%, 2.513123%)" offset="0.460938"/><stop stop-opacity="1" stop-color="rgb(51.977539%, 3.29895%, 2.555847%)" offset="0.46875"/><stop stop-opacity="1" stop-color="rgb(52.238464%, 3.355408%, 2.598572%)" offset="0.476562"/><stop stop-opacity="1" stop-color="rgb(52.497864%, 3.410339%, 2.641296%)" offset="0.484375"/><stop stop-opacity="1" stop-color="rgb(52.758789%, 3.465271%, 2.684021%)" offset="0.492188"/><stop stop-opacity="1" stop-color="rgb(53.018188%, 3.521729%, 2.728271%)" offset="0.5"/><stop stop-opacity="1" stop-color="rgb(53.279114%, 3.57666%, 2.770996%)" offset="0.507812"/><stop stop-opacity="1" stop-color="rgb(53.538513%, 3.631592%, 2.813721%)" offset="0.515625"/><stop stop-opacity="1" stop-color="rgb(53.799438%, 3.688049%, 2.856445%)" offset="0.523437"/><stop stop-opacity="1" stop-color="rgb(54.058838%, 3.742981%, 2.89917%)" offset="0.53125"/><stop stop-opacity="1" stop-color="rgb(54.319763%, 3.797913%, 2.941895%)" offset="0.539062"/><stop stop-opacity="1" stop-color="rgb(54.579163%, 3.85437%, 2.986145%)" offset="0.546875"/><stop stop-opacity="1" stop-color="rgb(54.840088%, 3.909302%, 3.02887%)" offset="0.554687"/><stop stop-opacity="1" stop-color="rgb(55.099487%, 3.964233%, 3.071594%)" offset="0.5625"/><stop stop-opacity="1" stop-color="rgb(55.360413%, 4.020691%, 3.114319%)" offset="0.570312"/><stop stop-opacity="1" stop-color="rgb(55.619812%, 4.075623%, 3.157043%)" offset="0.578125"/><stop stop-opacity="1" stop-color="rgb(55.880737%, 4.13208%, 3.199768%)" offset="0.585937"/><stop stop-opacity="1" stop-color="rgb(56.140137%, 4.187012%, 3.242493%)" offset="0.59375"/><stop stop-opacity="1" stop-color="rgb(56.401062%, 4.241943%, 3.286743%)" offset="0.601562"/><stop stop-opacity="1" stop-color="rgb(56.660461%, 4.298401%, 3.329468%)" offset="0.609375"/><stop stop-opacity="1" stop-color="rgb(56.921387%, 4.353333%, 3.372192%)" offset="0.617187"/><stop stop-opacity="1" stop-color="rgb(57.180786%, 4.408264%, 3.414917%)" offset="0.625"/><stop stop-opacity="1" stop-color="rgb(57.441711%, 4.464722%, 3.457642%)" offset="0.632812"/><stop stop-opacity="1" stop-color="rgb(57.701111%, 4.519653%, 3.500366%)" offset="0.640625"/><stop stop-opacity="1" stop-color="rgb(57.962036%, 4.574585%, 3.544617%)" offset="0.648437"/><stop stop-opacity="1" stop-color="rgb(58.221436%, 4.631042%, 3.587341%)" offset="0.65625"/><stop stop-opacity="1" stop-color="rgb(58.482361%, 4.685974%, 3.630066%)" offset="0.664062"/><stop stop-opacity="1" stop-color="rgb(58.74176%, 4.740906%, 3.672791%)" offset="0.671875"/><stop stop-opacity="1" stop-color="rgb(59.002686%, 4.797363%, 3.715515%)" offset="0.679687"/><stop stop-opacity="1" stop-color="rgb(59.262085%, 4.852295%, 3.75824%)" offset="0.6875"/><stop stop-opacity="1" stop-color="rgb(59.52301%, 4.907227%, 3.80249%)" offset="0.695312"/><stop stop-opacity="1" stop-color="rgb(59.78241%, 4.963684%, 3.845215%)" offset="0.703125"/><stop stop-opacity="1" stop-color="rgb(60.043335%, 5.018616%, 3.887939%)" offset="0.710937"/><stop stop-opacity="1" stop-color="rgb(60.302734%, 5.075073%, 3.930664%)" offset="0.71875"/><stop stop-opacity="1" stop-color="rgb(60.56366%, 5.130005%, 3.973389%)" offset="0.726562"/><stop stop-opacity="1" stop-color="rgb(60.823059%, 5.184937%, 4.016113%)" offset="0.734375"/><stop stop-opacity="1" stop-color="rgb(61.083984%, 5.241394%, 4.060364%)" offset="0.742187"/><stop stop-opacity="1" stop-color="rgb(61.343384%, 5.296326%, 4.103088%)" offset="0.75"/><stop stop-opacity="1" stop-color="rgb(61.604309%, 5.351257%, 4.145813%)" offset="0.757812"/><stop stop-opacity="1" stop-color="rgb(61.863708%, 5.407715%, 4.188538%)" offset="0.765625"/><stop stop-opacity="1" stop-color="rgb(62.124634%, 5.462646%, 4.231262%)" offset="0.773438"/><stop stop-opacity="1" stop-color="rgb(62.384033%, 5.517578%, 4.273987%)" offset="0.78125"/><stop stop-opacity="1" stop-color="rgb(62.644958%, 5.574036%, 4.316711%)" offset="0.789062"/><stop stop-opacity="1" stop-color="rgb(62.904358%, 5.628967%, 4.360962%)" offset="0.796875"/><stop stop-opacity="1" stop-color="rgb(63.165283%, 5.683899%, 4.403687%)" offset="0.804688"/><stop stop-opacity="1" stop-color="rgb(63.424683%, 5.740356%, 4.446411%)" offset="0.8125"/><stop stop-opacity="1" stop-color="rgb(63.685608%, 5.795288%, 4.489136%)" offset="0.820312"/><stop stop-opacity="1" stop-color="rgb(63.945007%, 5.85022%, 4.53186%)" offset="0.828125"/><stop stop-opacity="1" stop-color="rgb(64.205933%, 5.906677%, 4.574585%)" offset="0.835938"/><stop stop-opacity="1" stop-color="rgb(64.465332%, 5.961609%, 4.618835%)" offset="0.84375"/><stop stop-opacity="1" stop-color="rgb(64.726257%, 6.018066%, 4.66156%)" offset="0.851562"/><stop stop-opacity="1" stop-color="rgb(64.985657%, 6.072998%, 4.704285%)" offset="0.859375"/><stop stop-opacity="1" stop-color="rgb(65.246582%, 6.12793%, 4.747009%)" offset="0.867188"/><stop stop-opacity="1" stop-color="rgb(65.505981%, 6.184387%, 4.789734%)" offset="0.875"/><stop stop-opacity="1" stop-color="rgb(65.766907%, 6.239319%, 4.832458%)" offset="0.882812"/><stop stop-opacity="1" stop-color="rgb(66.026306%, 6.29425%, 4.876709%)" offset="0.890625"/><stop stop-opacity="1" stop-color="rgb(66.287231%, 6.350708%, 4.919434%)" offset="0.898438"/><stop stop-opacity="1" stop-color="rgb(66.546631%, 6.40564%, 4.962158%)" offset="0.90625"/><stop stop-opacity="1" stop-color="rgb(66.807556%, 6.460571%, 5.004883%)" offset="0.914062"/><stop stop-opacity="1" stop-color="rgb(67.066956%, 6.517029%, 5.047607%)" offset="0.921875"/><stop stop-opacity="1" stop-color="rgb(67.327881%, 6.57196%, 5.090332%)" offset="0.929688"/><stop stop-opacity="1" stop-color="rgb(67.58728%, 6.626892%, 5.134583%)" offset="0.9375"/><stop stop-opacity="1" stop-color="rgb(67.848206%, 6.68335%, 5.177307%)" offset="0.945312"/><stop stop-opacity="1" stop-color="rgb(68.107605%, 6.738281%, 5.220032%)" offset="0.953125"/><stop stop-opacity="1" stop-color="rgb(68.36853%, 6.793213%, 5.262756%)" offset="0.960938"/><stop stop-opacity="1" stop-color="rgb(68.62793%, 6.84967%, 5.305481%)" offset="0.96875"/><stop stop-opacity="1" stop-color="rgb(68.888855%, 6.904602%, 5.348206%)" offset="0.976562"/><stop stop-opacity="1" stop-color="rgb(69.148254%, 6.959534%, 5.39093%)" offset="0.984375"/><stop stop-opacity="1" stop-color="rgb(69.40918%, 7.015991%, 5.435181%)" offset="0.992188"/><stop stop-opacity="1" stop-color="rgb(69.668579%, 7.070923%, 5.477905%)" offset="1"/></linearGradient><clipPath id="abe4ab204f"><path d="M 133 83.203125 L 241 83.203125 L 241 191 L 133 191 Z M 133 83.203125 " clip-rule="nonzero"/></clipPath></defs><rect x="-37.5" width="450" fill="#ffffff" y="-37.499999" height="449.999989" fill-opacity="1"/><rect x="-37.5" fill="url(#333ed295fc)" width="450" y="-37.499999" height="449.999989"/><path fill="#ffffff" d="M 188.769531 343.582031 C 185.050781 343.582031 181.335938 343.445312 177.625 343.171875 C 173.917969 342.898438 170.222656 342.488281 166.542969 341.941406 C 162.863281 341.398438 159.210938 340.71875 155.582031 339.902344 C 151.953125 339.085938 148.359375 338.140625 144.800781 337.0625 C 141.242188 335.980469 137.726562 334.773438 134.257812 333.433594 C 130.785156 332.09375 127.371094 330.632812 124.007812 329.042969 C 120.648438 327.449219 117.347656 325.738281 114.113281 323.90625 C 110.875 322.074219 107.710938 320.125 104.617188 318.058594 C 101.527344 315.992188 98.515625 313.8125 95.582031 311.527344 C 92.652344 309.238281 89.804688 306.84375 87.050781 304.347656 C 84.296875 301.851562 81.636719 299.253906 79.070312 296.5625 C 76.503906 293.867188 74.042969 291.082031 71.683594 288.207031 C 69.324219 285.332031 67.074219 282.375 64.933594 279.335938 C 62.792969 276.292969 60.765625 273.179688 58.851562 269.988281 C 56.941406 266.796875 55.148438 263.542969 53.476562 260.222656 C 51.804688 256.898438 50.257812 253.519531 48.832031 250.082031 C 47.410156 246.648438 46.113281 243.164062 44.949219 239.632812 C 43.78125 236.101562 42.746094 232.53125 41.84375 228.921875 C 40.9375 225.316406 40.167969 221.679688 39.535156 218.015625 C 38.898438 214.351562 38.398438 210.667969 38.03125 206.96875 C 37.667969 203.265625 37.441406 199.554688 37.347656 195.839844 C 37.257812 192.121094 37.304688 188.402344 37.484375 184.6875 C 37.667969 180.976562 37.988281 177.273438 38.441406 173.582031 C 38.898438 169.890625 39.488281 166.21875 40.214844 162.574219 C 40.941406 158.925781 41.796875 155.308594 42.789062 151.722656 C 43.78125 148.140625 44.90625 144.597656 46.15625 141.09375 C 47.410156 137.59375 48.789062 134.140625 50.296875 130.742188 C 51.804688 127.34375 53.4375 124.003906 55.1875 120.722656 C 56.941406 117.441406 58.8125 114.230469 60.804688 111.089844 C 62.792969 107.945312 64.894531 104.882812 67.113281 101.894531 C 69.328125 98.90625 71.648438 96.007812 74.078125 93.191406 C 76.507812 90.375 79.039062 87.652344 81.667969 85.019531 C 83.417969 83.261719 85.210938 81.542969 87.046875 79.871094 C 88.882812 78.195312 90.757812 76.570312 92.671875 74.988281 C 94.585938 73.40625 96.539062 71.875 98.53125 70.390625 C 100.523438 68.90625 102.546875 67.46875 104.609375 66.085938 C 106.671875 64.699219 108.765625 63.363281 110.890625 62.082031 C 113.019531 60.800781 115.175781 59.570312 117.363281 58.394531 C 119.550781 57.21875 121.765625 56.097656 124.007812 55.03125 C 126.25 53.964844 128.519531 52.953125 130.8125 51.996094 C 133.101562 51.039062 135.417969 50.140625 137.753906 49.300781 C 140.089844 48.457031 142.445312 47.675781 144.820312 46.949219 C 147.195312 46.222656 149.589844 45.554688 151.996094 44.949219 C 154.402344 44.339844 156.824219 43.789062 159.261719 43.300781 C 161.695312 42.8125 164.140625 42.382812 166.597656 42.015625 C 169.050781 41.644531 171.515625 41.335938 173.988281 41.089844 C 176.457031 40.84375 178.933594 40.65625 181.414062 40.53125 C 183.894531 40.402344 186.375 40.339844 188.859375 40.335938 C 191.34375 40.332031 193.824219 40.390625 196.304688 40.507812 C 198.785156 40.625 201.261719 40.804688 203.734375 41.042969 C 206.207031 41.285156 208.671875 41.585938 211.128906 41.945312 C 213.585938 42.308594 216.03125 42.730469 218.46875 43.210938 C 220.90625 43.695312 223.328125 44.234375 225.738281 44.835938 C 228.148438 45.4375 230.542969 46.097656 232.917969 46.816406 C 235.296875 47.535156 237.652344 48.3125 239.992188 49.144531 C 242.332031 49.980469 244.648438 50.871094 246.945312 51.820312 C 249.238281 52.769531 251.511719 53.773438 253.757812 54.832031 C 256 55.894531 258.21875 57.007812 260.410156 58.179688 C 262.601562 59.347656 264.761719 60.570312 266.894531 61.847656 C 269.023438 63.121094 271.121094 64.449219 273.1875 65.828125 C 275.253906 67.207031 277.285156 68.636719 279.277344 70.117188 C 281.273438 71.59375 283.230469 73.121094 285.152344 74.695312 C 287.070312 76.273438 288.953125 77.894531 290.792969 79.5625 C 292.632812 81.226562 294.429688 82.941406 296.1875 84.695312 C 297.945312 86.453125 299.65625 88.25 301.324219 90.089844 C 302.992188 91.929688 304.613281 93.8125 306.1875 95.730469 C 307.761719 97.652344 309.289062 99.609375 310.769531 101.605469 C 312.246094 103.601562 313.675781 105.628906 315.054688 107.695312 C 316.433594 109.761719 317.761719 111.859375 319.039062 113.988281 C 320.3125 116.121094 321.535156 118.28125 322.707031 120.472656 C 323.875 122.664062 324.988281 124.882812 326.050781 127.128906 C 327.109375 129.375 328.113281 131.644531 329.0625 133.9375 C 330.011719 136.234375 330.902344 138.550781 331.738281 140.890625 C 332.574219 143.230469 333.351562 145.589844 334.070312 147.964844 C 334.789062 150.34375 335.445312 152.734375 336.046875 155.144531 C 336.648438 157.554688 337.191406 159.980469 337.671875 162.414062 C 338.152344 164.851562 338.574219 167.296875 338.9375 169.753906 C 339.296875 172.210938 339.597656 174.675781 339.839844 177.148438 C 340.078125 179.621094 340.257812 182.097656 340.375 184.578125 C 340.496094 187.058594 340.550781 189.539062 340.546875 192.023438 C 340.542969 194.507812 340.480469 196.988281 340.355469 199.46875 C 340.226562 201.949219 340.042969 204.425781 339.792969 206.898438 C 339.546875 209.367188 339.238281 211.832031 338.871094 214.289062 C 338.5 216.742188 338.070312 219.1875 337.582031 221.625 C 337.09375 224.058594 336.542969 226.480469 335.9375 228.886719 C 335.328125 231.296875 334.660156 233.6875 333.933594 236.0625 C 333.210938 238.4375 332.425781 240.792969 331.582031 243.128906 C 330.742188 245.464844 329.84375 247.78125 328.886719 250.074219 C 327.933594 252.367188 326.921875 254.632812 325.851562 256.875 C 324.785156 259.117188 323.664062 261.332031 322.488281 263.519531 C 321.3125 265.707031 320.082031 267.863281 318.800781 269.992188 C 317.519531 272.117188 316.183594 274.214844 314.800781 276.273438 C 313.414062 278.335938 311.980469 280.363281 310.496094 282.351562 C 309.007812 284.34375 307.476562 286.296875 305.894531 288.210938 C 304.316406 290.125 302.6875 292.003906 301.015625 293.835938 C 299.339844 295.671875 297.625 297.464844 295.863281 299.214844 C 292.363281 302.734375 288.699219 306.070312 284.871094 309.226562 C 281.039062 312.382812 277.066406 315.34375 272.941406 318.105469 C 268.820312 320.867188 264.570312 323.421875 260.199219 325.761719 C 255.824219 328.105469 251.34375 330.226562 246.757812 332.125 C 242.175781 334.023438 237.507812 335.691406 232.757812 337.128906 C 228.007812 338.566406 223.199219 339.765625 218.332031 340.730469 C 213.464844 341.691406 208.558594 342.410156 203.621094 342.886719 C 198.679688 343.363281 193.730469 343.59375 188.769531 343.582031 Z M 188.769531 46.300781 C 108.359375 46.300781 42.945312 111.710938 42.945312 192.121094 C 42.945312 272.53125 108.359375 337.9375 188.769531 337.9375 C 269.179688 337.9375 334.585938 272.527344 334.585938 192.121094 C 334.585938 111.71875 269.171875 46.300781 188.769531 46.300781 Z M 188.769531 46.300781 " fill-opacity="1" fill-rule="nonzero"/><g clip-path="url(#abe4ab204f)"><path fill="#ffffff" d="M 240.789062 137.199219 C 240.789062 138.957031 240.703125 140.707031 240.53125 142.457031 C 240.359375 144.207031 240.101562 145.941406 239.761719 147.664062 C 239.417969 149.386719 238.992188 151.089844 238.480469 152.769531 C 237.972656 154.453125 237.378906 156.101562 236.707031 157.726562 C 236.035156 159.347656 235.285156 160.9375 234.457031 162.484375 C 233.628906 164.035156 232.726562 165.539062 231.75 167 C 230.773438 168.460938 229.730469 169.871094 228.613281 171.226562 C 227.5 172.585938 226.320312 173.886719 225.078125 175.128906 C 223.835938 176.371094 222.535156 177.550781 221.179688 178.664062 C 219.820312 179.777344 218.410156 180.824219 216.949219 181.800781 C 215.488281 182.777344 213.984375 183.679688 212.4375 184.507812 C 210.886719 185.335938 209.300781 186.085938 207.675781 186.757812 C 206.054688 187.429688 204.402344 188.019531 202.71875 188.53125 C 201.039062 189.039062 199.335938 189.464844 197.613281 189.808594 C 195.890625 190.152344 194.15625 190.410156 192.40625 190.582031 C 190.660156 190.753906 188.90625 190.839844 187.148438 190.839844 C 185.394531 190.839844 183.640625 190.753906 181.890625 190.582031 C 180.144531 190.410156 178.40625 190.152344 176.683594 189.808594 C 174.960938 189.464844 173.257812 189.039062 171.578125 188.53125 C 169.898438 188.019531 168.246094 187.429688 166.621094 186.757812 C 165 186.085938 163.414062 185.335938 161.863281 184.507812 C 160.3125 183.679688 158.808594 182.777344 157.347656 181.800781 C 155.886719 180.824219 154.476562 179.777344 153.121094 178.664062 C 151.761719 177.550781 150.460938 176.371094 149.21875 175.128906 C 147.976562 173.886719 146.800781 172.585938 145.683594 171.226562 C 144.570312 169.871094 143.523438 168.460938 142.546875 167 C 141.574219 165.539062 140.671875 164.035156 139.84375 162.484375 C 139.015625 160.9375 138.265625 159.347656 137.589844 157.726562 C 136.917969 156.101562 136.328125 154.453125 135.820312 152.769531 C 135.308594 151.089844 134.882812 149.386719 134.539062 147.664062 C 134.195312 145.941406 133.9375 144.207031 133.765625 142.457031 C 133.59375 140.707031 133.507812 138.957031 133.507812 137.199219 C 133.507812 135.441406 133.59375 133.691406 133.765625 131.941406 C 133.9375 130.191406 134.195312 128.457031 134.539062 126.734375 C 134.882812 125.011719 135.308594 123.308594 135.820312 121.628906 C 136.328125 119.945312 136.917969 118.292969 137.589844 116.671875 C 138.265625 115.046875 139.015625 113.460938 139.84375 111.914062 C 140.671875 110.363281 141.574219 108.859375 142.546875 107.398438 C 143.523438 105.9375 144.570312 104.527344 145.683594 103.167969 C 146.800781 101.8125 147.976562 100.511719 149.21875 99.269531 C 150.460938 98.027344 151.761719 96.847656 153.121094 95.734375 C 154.476562 94.621094 155.886719 93.574219 157.347656 92.597656 C 158.808594 91.621094 160.3125 90.71875 161.863281 89.890625 C 163.414062 89.0625 165 88.3125 166.621094 87.640625 C 168.246094 86.96875 169.898438 86.378906 171.578125 85.867188 C 173.257812 85.359375 174.960938 84.929688 176.683594 84.589844 C 178.40625 84.246094 180.144531 83.988281 181.890625 83.816406 C 183.640625 83.644531 185.394531 83.558594 187.148438 83.558594 C 188.90625 83.558594 190.660156 83.644531 192.40625 83.816406 C 194.15625 83.988281 195.890625 84.246094 197.613281 84.589844 C 199.335938 84.929688 201.039062 85.359375 202.71875 85.867188 C 204.402344 86.378906 206.054688 86.96875 207.675781 87.640625 C 209.300781 88.3125 210.886719 89.0625 212.4375 89.890625 C 213.984375 90.71875 215.488281 91.621094 216.949219 92.597656 C 218.410156 93.574219 219.820312 94.621094 221.179688 95.734375 C 222.535156 96.847656 223.835938 98.027344 225.078125 99.269531 C 226.320312 100.511719 227.5 101.8125 228.613281 103.167969 C 229.730469 104.527344 230.773438 105.9375 231.75 107.398438 C 232.726562 108.859375 233.628906 110.363281 234.457031 111.914062 C 235.285156 113.460938 236.035156 115.046875 236.707031 116.671875 C 237.378906 118.292969 237.972656 119.945312 238.480469 121.628906 C 238.992188 123.308594 239.417969 125.011719 239.761719 126.734375 C 240.101562 128.457031 240.359375 130.191406 240.53125 131.941406 C 240.703125 133.691406 240.789062 135.441406 240.789062 137.199219 Z M 240.789062 137.199219 " fill-opacity="1" fill-rule="nonzero"/></g><path fill="#ffffff" d="M 115.058594 287.738281 L 259.238281 287.738281 C 259.761719 287.734375 260.285156 287.710938 260.804688 287.675781 C 261.328125 287.636719 261.847656 287.585938 262.367188 287.515625 C 262.886719 287.449219 263.402344 287.363281 263.914062 287.265625 C 264.429688 287.167969 264.9375 287.050781 265.445312 286.921875 C 265.953125 286.792969 266.453125 286.648438 266.953125 286.488281 C 267.449219 286.328125 267.941406 286.152344 268.429688 285.964844 C 268.917969 285.773438 269.398438 285.570312 269.875 285.351562 C 270.351562 285.132812 270.820312 284.902344 271.28125 284.65625 C 271.742188 284.410156 272.195312 284.148438 272.640625 283.875 C 273.085938 283.601562 273.523438 283.316406 273.953125 283.015625 C 274.382812 282.714844 274.800781 282.402344 275.210938 282.078125 C 275.621094 281.753906 276.019531 281.417969 276.410156 281.066406 C 276.800781 280.71875 277.179688 280.359375 277.546875 279.988281 C 277.914062 279.617188 278.269531 279.234375 278.617188 278.839844 C 278.960938 278.449219 279.292969 278.042969 279.617188 277.632812 C 279.9375 277.21875 280.246094 276.796875 280.542969 276.367188 C 280.835938 275.933594 281.121094 275.496094 281.390625 275.046875 C 281.660156 274.597656 281.914062 274.140625 282.15625 273.679688 C 282.398438 273.214844 282.625 272.742188 282.839844 272.265625 C 283.054688 271.789062 283.253906 271.304688 283.4375 270.816406 C 283.625 270.328125 283.792969 269.832031 283.949219 269.332031 C 284.105469 268.835938 284.246094 268.332031 284.371094 267.824219 C 284.496094 267.316406 284.605469 266.804688 284.699219 266.289062 C 284.792969 265.773438 284.871094 265.257812 284.9375 264.738281 C 285 264.21875 285.046875 263.699219 285.078125 263.175781 C 285.113281 262.65625 285.128906 262.132812 285.128906 261.609375 C 285.132812 261.085938 285.117188 260.5625 285.085938 260.042969 C 285.054688 259.519531 285.011719 259 284.949219 258.480469 C 284.886719 257.960938 284.808594 257.441406 284.71875 256.929688 C 284.625 256.414062 284.515625 255.902344 284.394531 255.394531 C 284.269531 254.886719 284.132812 254.382812 283.980469 253.882812 C 283.824219 253.382812 283.65625 252.886719 283.476562 252.394531 C 282.730469 250.515625 281.917969 248.667969 281.039062 246.851562 C 280.15625 245.03125 279.207031 243.25 278.195312 241.5 C 277.179688 239.753906 276.097656 238.046875 274.957031 236.378906 C 273.8125 234.714844 272.609375 233.089844 271.34375 231.515625 C 270.082031 229.9375 268.757812 228.410156 267.382812 226.933594 C 266.003906 225.457031 264.570312 224.035156 263.085938 222.664062 C 261.597656 221.292969 260.066406 219.980469 258.480469 218.726562 C 256.898438 217.46875 255.269531 216.277344 253.59375 215.144531 C 251.921875 214.007812 250.210938 212.941406 248.457031 211.9375 C 246.703125 210.929688 244.914062 209.992188 243.089844 209.121094 C 241.265625 208.25 239.414062 207.449219 237.53125 206.71875 C 235.644531 205.984375 233.738281 205.324219 231.804688 204.734375 C 229.871094 204.148438 227.917969 203.632812 225.949219 203.1875 C 223.976562 202.746094 221.992188 202.378906 219.992188 202.082031 C 217.992188 201.789062 215.984375 201.570312 213.96875 201.425781 C 211.953125 201.28125 209.933594 201.214844 207.914062 201.222656 L 166.386719 201.222656 C 164.367188 201.222656 162.347656 201.296875 160.335938 201.445312 C 158.320312 201.597656 156.316406 201.820312 154.320312 202.121094 C 152.324219 202.417969 150.339844 202.792969 148.371094 203.238281 C 146.402344 203.683594 144.449219 204.203125 142.519531 204.796875 C 140.589844 205.386719 138.683594 206.050781 136.800781 206.785156 C 134.921875 207.519531 133.070312 208.324219 131.25 209.195312 C 129.425781 210.066406 127.640625 211.003906 125.886719 212.007812 C 124.136719 213.015625 122.425781 214.082031 120.753906 215.214844 C 119.082031 216.347656 117.453125 217.539062 115.871094 218.792969 C 114.289062 220.046875 112.753906 221.359375 111.265625 222.726562 C 109.78125 224.09375 108.347656 225.515625 106.96875 226.988281 C 105.589844 228.464844 104.265625 229.988281 103 231.5625 C 101.734375 233.132812 100.527344 234.75 99.382812 236.414062 C 98.238281 238.078125 97.15625 239.78125 96.136719 241.523438 C 95.117188 243.269531 94.164062 245.046875 93.277344 246.859375 C 92.390625 248.675781 91.574219 250.519531 90.824219 252.394531 C 90.640625 252.886719 90.472656 253.378906 90.320312 253.878906 C 90.167969 254.378906 90.027344 254.886719 89.90625 255.394531 C 89.78125 255.902344 89.671875 256.414062 89.582031 256.929688 C 89.488281 257.441406 89.410156 257.960938 89.351562 258.480469 C 89.289062 259 89.242188 259.519531 89.210938 260.042969 C 89.179688 260.5625 89.167969 261.085938 89.167969 261.609375 C 89.167969 262.132812 89.183594 262.65625 89.21875 263.175781 C 89.25 263.699219 89.296875 264.21875 89.359375 264.738281 C 89.425781 265.257812 89.503906 265.773438 89.597656 266.289062 C 89.691406 266.804688 89.800781 267.316406 89.925781 267.824219 C 90.050781 268.332031 90.191406 268.835938 90.347656 269.335938 C 90.503906 269.832031 90.671875 270.328125 90.859375 270.816406 C 91.042969 271.308594 91.242188 271.789062 91.457031 272.265625 C 91.671875 272.746094 91.898438 273.214844 92.140625 273.679688 C 92.382812 274.144531 92.636719 274.597656 92.90625 275.046875 C 93.175781 275.496094 93.460938 275.933594 93.753906 276.367188 C 94.050781 276.796875 94.359375 277.21875 94.679688 277.632812 C 95.003906 278.046875 95.335938 278.449219 95.679688 278.84375 C 96.027344 279.234375 96.382812 279.617188 96.75 279.988281 C 97.117188 280.359375 97.496094 280.71875 97.886719 281.070312 C 98.277344 281.417969 98.675781 281.753906 99.085938 282.078125 C 99.496094 282.40625 99.917969 282.71875 100.34375 283.015625 C 100.773438 283.316406 101.210938 283.601562 101.65625 283.875 C 102.101562 284.148438 102.554688 284.410156 103.019531 284.65625 C 103.480469 284.902344 103.949219 285.136719 104.421875 285.351562 C 104.898438 285.570312 105.378906 285.777344 105.867188 285.964844 C 106.355469 286.15625 106.847656 286.328125 107.347656 286.488281 C 107.84375 286.648438 108.347656 286.792969 108.851562 286.921875 C 109.359375 287.054688 109.871094 287.167969 110.382812 287.265625 C 110.898438 287.367188 111.414062 287.449219 111.933594 287.519531 C 112.449219 287.585938 112.96875 287.636719 113.492188 287.675781 C 114.015625 287.710938 114.535156 287.734375 115.058594 287.738281 Z M 115.058594 287.738281 " fill-opacity="1" fill-rule="nonzero"/></svg>